<svg width="29" height="29" viewBox="0 0 29 29" fill="none" xmlns="http://www.w3.org/2000/svg">
<path d="M23.5483 0.5C22.9506 0.5 22.3528 0.72801 21.8967 1.18359L19.0773 4L24.9169 9.83333L27.7364 7.01693C28.6485 6.10576 28.6485 4.62861 27.7364 3.71745L25.1998 1.18359C24.7437 0.72801 24.146 0.5 23.5483 0.5ZM16.7415 6.33333L3.02973 20.0303C3.02973 20.0303 4.10161 19.9343 4.50105 20.3333C4.90048 20.7323 4.57167 23.3433 5.0622 23.8333C5.55273 24.3233 8.15006 23.9784 8.52263 24.3506C8.8952 24.7228 8.86936 25.8636 8.86936 25.8636L22.5811 12.1667L16.7415 6.33333ZM1.55842 23.8333L0.456647 26.9505C0.413335 27.0735 0.390974 27.2029 0.390495 27.3333C0.390495 27.6428 0.513544 27.9395 0.732573 28.1583C0.951601 28.3771 1.24867 28.5 1.55842 28.5C1.68896 28.4995 1.8185 28.4772 1.94165 28.4339C1.94546 28.4324 1.94926 28.4309 1.95305 28.4294L1.98271 28.4202C1.98499 28.4187 1.98727 28.4172 1.98955 28.4157L5.0622 27.3333L3.31031 25.5833L1.55842 23.8333Z" fill="black"/>
</svg>
