<svg width="31" height="35" viewBox="0 0 31 35" fill="none" xmlns="http://www.w3.org/2000/svg">
<path d="M2.31716 31.7188C2.31716 32.589 2.66324 33.4236 3.27926 34.039C3.89527 34.6543 4.73077 35 5.60195 35H25.3107C26.1819 35 27.0174 34.6543 27.6334 34.039C28.2494 33.4236 28.5955 32.589 28.5955 31.7188V8.75001H2.31716V31.7188ZM20.931 14.2188C20.931 13.9287 21.0463 13.6505 21.2517 13.4454C21.457 13.2402 21.7355 13.125 22.0259 13.125C22.3163 13.125 22.5948 13.2402 22.8001 13.4454C23.0055 13.6505 23.1208 13.9287 23.1208 14.2188V29.5313C23.1208 29.8213 23.0055 30.0995 22.8001 30.3047C22.5948 30.5098 22.3163 30.625 22.0259 30.625C21.7355 30.625 21.457 30.5098 21.2517 30.3047C21.0463 30.0995 20.931 29.8213 20.931 29.5313V14.2188ZM14.3614 14.2188C14.3614 13.9287 14.4768 13.6505 14.6821 13.4454C14.8874 13.2402 15.1659 13.125 15.4563 13.125C15.7467 13.125 16.0252 13.2402 16.2306 13.4454C16.4359 13.6505 16.5513 13.9287 16.5513 14.2188V29.5313C16.5513 29.8213 16.4359 30.0995 16.2306 30.3047C16.0252 30.5098 15.7467 30.625 15.4563 30.625C15.1659 30.625 14.8874 30.5098 14.6821 30.3047C14.4768 30.0995 14.3614 29.8213 14.3614 29.5313V14.2188ZM7.79181 14.2188C7.79181 13.9287 7.90717 13.6505 8.11251 13.4454C8.31785 13.2402 8.59635 13.125 8.88674 13.125C9.17714 13.125 9.45564 13.2402 9.66097 13.4454C9.86631 13.6505 9.98167 13.9287 9.98167 14.2188V29.5313C9.98167 29.8213 9.86631 30.0995 9.66097 30.3047C9.45564 30.5098 9.17714 30.625 8.88674 30.625C8.59635 30.625 8.31785 30.5098 8.11251 30.3047C7.90717 30.0995 7.79181 29.8213 7.79181 29.5313V14.2188ZM29.6904 2.18751H21.4784L20.8352 0.909192C20.6989 0.635901 20.489 0.406014 20.2291 0.245394C19.9691 0.0847737 19.6695 -0.00020699 19.3639 1.19853e-05H11.5419C11.237 -0.00115905 10.9379 0.0835048 10.6789 0.244304C10.4199 0.405102 10.2114 0.635532 10.0775 0.909192L9.43421 2.18751H1.22223C0.93184 2.18751 0.653341 2.30275 0.448002 2.50786C0.242662 2.71298 0.127304 2.99118 0.127304 3.28126L0.127304 5.46876C0.127304 5.75884 0.242662 6.03704 0.448002 6.24216C0.653341 6.44728 0.93184 6.56251 1.22223 6.56251H29.6904C29.9808 6.56251 30.2593 6.44728 30.4646 6.24216C30.67 6.03704 30.7853 5.75884 30.7853 5.46876V3.28126C30.7853 2.99118 30.67 2.71298 30.4646 2.50786C30.2593 2.30275 29.9808 2.18751 29.6904 2.18751Z" fill="black"/>
</svg>
